<?xml version="1.0" encoding="utf-8" standalone="no"?>
<!DOCTYPE svg PUBLIC "-//W3C//DTD SVG 1.1//EN"
  "http://www.w3.org/Graphics/SVG/1.1/DTD/svg11.dtd">
<svg xmlns:xlink="http://www.w3.org/1999/xlink" width="1080pt" height="720pt" viewBox="0 0 1080 720" xmlns="http://www.w3.org/2000/svg" version="1.1">
 <metadata>
  <rdf:RDF xmlns:dc="http://purl.org/dc/elements/1.1/" xmlns:cc="http://creativecommons.org/ns#" xmlns:rdf="http://www.w3.org/1999/02/22-rdf-syntax-ns#">
   <cc:Work>
    <dc:type rdf:resource="http://purl.org/dc/dcmitype/StillImage"/>
    <dc:date>2023-07-04T22:30:38.991560</dc:date>
    <dc:format>image/svg+xml</dc:format>
    <dc:creator>
     <cc:Agent>
      <dc:title>Matplotlib v3.6.0, https://matplotlib.org/</dc:title>
     </cc:Agent>
    </dc:creator>
   </cc:Work>
  </rdf:RDF>
 </metadata>
 <defs>
  <style type="text/css">*{stroke-linejoin: round; stroke-linecap: butt}</style>
 </defs>
 <g id="figure_1">
  <g id="patch_1">
   <path d="M 0 720 
L 1080 720 
L 1080 0 
L 0 0 
z
" style="fill: #ffffff"/>
  </g>
  <g id="axes_1">
   <g id="patch_2">
    <path d="M 49.5 594 
L 1067.04 594 
L 1067.04 27.6 
L 49.5 27.6 
z
" style="fill: #ffffff"/>
   </g>
   <g id="matplotlib.axis_1">
    <g id="xtick_1">
     <g id="line2d_1">
      <defs>
       <path id="m2294b0a4b4" d="M 0 0 
L 0 6 
" style="stroke: #262626; stroke-width: 1.25"/>
      </defs>
      <g>
       <use xlink:href="#m2294b0a4b4" x="95.751818" y="594" style="fill: #262626; stroke: #262626; stroke-width: 1.25"/>
      </g>
     </g>
     <g id="text_1">
      <!-- Bacteroidota -->
      <g style="fill: #262626" transform="translate(98.59549 665.258125) rotate(-90) scale(0.11 -0.11)">
       <defs>
        <path id="ArialMT-42" d="M 469 0 
L 469 4581 
L 2188 4581 
Q 2713 4581 3030 4442 
Q 3347 4303 3526 4014 
Q 3706 3725 3706 3409 
Q 3706 3116 3547 2856 
Q 3388 2597 3066 2438 
Q 3481 2316 3704 2022 
Q 3928 1728 3928 1328 
Q 3928 1006 3792 729 
Q 3656 453 3456 303 
Q 3256 153 2954 76 
Q 2653 0 2216 0 
L 469 0 
z
M 1075 2656 
L 2066 2656 
Q 2469 2656 2644 2709 
Q 2875 2778 2992 2937 
Q 3109 3097 3109 3338 
Q 3109 3566 3000 3739 
Q 2891 3913 2687 3977 
Q 2484 4041 1991 4041 
L 1075 4041 
L 1075 2656 
z
M 1075 541 
L 2216 541 
Q 2509 541 2628 563 
Q 2838 600 2978 687 
Q 3119 775 3209 942 
Q 3300 1109 3300 1328 
Q 3300 1584 3169 1773 
Q 3038 1963 2805 2039 
Q 2572 2116 2134 2116 
L 1075 2116 
L 1075 541 
z
" transform="scale(0.015625)"/>
        <path id="ArialMT-61" d="M 2588 409 
Q 2275 144 1986 34 
Q 1697 -75 1366 -75 
Q 819 -75 525 192 
Q 231 459 231 875 
Q 231 1119 342 1320 
Q 453 1522 633 1644 
Q 813 1766 1038 1828 
Q 1203 1872 1538 1913 
Q 2219 1994 2541 2106 
Q 2544 2222 2544 2253 
Q 2544 2597 2384 2738 
Q 2169 2928 1744 2928 
Q 1347 2928 1158 2789 
Q 969 2650 878 2297 
L 328 2372 
Q 403 2725 575 2942 
Q 747 3159 1072 3276 
Q 1397 3394 1825 3394 
Q 2250 3394 2515 3294 
Q 2781 3194 2906 3042 
Q 3031 2891 3081 2659 
Q 3109 2516 3109 2141 
L 3109 1391 
Q 3109 606 3145 398 
Q 3181 191 3288 0 
L 2700 0 
Q 2613 175 2588 409 
z
M 2541 1666 
Q 2234 1541 1622 1453 
Q 1275 1403 1131 1340 
Q 988 1278 909 1158 
Q 831 1038 831 891 
Q 831 666 1001 516 
Q 1172 366 1500 366 
Q 1825 366 2078 508 
Q 2331 650 2450 897 
Q 2541 1088 2541 1459 
L 2541 1666 
z
" transform="scale(0.015625)"/>
        <path id="ArialMT-63" d="M 2588 1216 
L 3141 1144 
Q 3050 572 2676 248 
Q 2303 -75 1759 -75 
Q 1078 -75 664 370 
Q 250 816 250 1647 
Q 250 2184 428 2587 
Q 606 2991 970 3192 
Q 1334 3394 1763 3394 
Q 2303 3394 2647 3120 
Q 2991 2847 3088 2344 
L 2541 2259 
Q 2463 2594 2264 2762 
Q 2066 2931 1784 2931 
Q 1359 2931 1093 2626 
Q 828 2322 828 1663 
Q 828 994 1084 691 
Q 1341 388 1753 388 
Q 2084 388 2306 591 
Q 2528 794 2588 1216 
z
" transform="scale(0.015625)"/>
        <path id="ArialMT-74" d="M 1650 503 
L 1731 6 
Q 1494 -44 1306 -44 
Q 1000 -44 831 53 
Q 663 150 594 308 
Q 525 466 525 972 
L 525 2881 
L 113 2881 
L 113 3319 
L 525 3319 
L 525 4141 
L 1084 4478 
L 1084 3319 
L 1650 3319 
L 1650 2881 
L 1084 2881 
L 1084 941 
Q 1084 700 1114 631 
Q 1144 563 1211 522 
Q 1278 481 1403 481 
Q 1497 481 1650 503 
z
" transform="scale(0.015625)"/>
        <path id="ArialMT-65" d="M 2694 1069 
L 3275 997 
Q 3138 488 2766 206 
Q 2394 -75 1816 -75 
Q 1088 -75 661 373 
Q 234 822 234 1631 
Q 234 2469 665 2931 
Q 1097 3394 1784 3394 
Q 2450 3394 2872 2941 
Q 3294 2488 3294 1666 
Q 3294 1616 3291 1516 
L 816 1516 
Q 847 969 1125 678 
Q 1403 388 1819 388 
Q 2128 388 2347 550 
Q 2566 713 2694 1069 
z
M 847 1978 
L 2700 1978 
Q 2663 2397 2488 2606 
Q 2219 2931 1791 2931 
Q 1403 2931 1139 2672 
Q 875 2413 847 1978 
z
" transform="scale(0.015625)"/>
        <path id="ArialMT-72" d="M 416 0 
L 416 3319 
L 922 3319 
L 922 2816 
Q 1116 3169 1280 3281 
Q 1444 3394 1641 3394 
Q 1925 3394 2219 3213 
L 2025 2691 
Q 1819 2813 1613 2813 
Q 1428 2813 1281 2702 
Q 1134 2591 1072 2394 
Q 978 2094 978 1738 
L 978 0 
L 416 0 
z
" transform="scale(0.015625)"/>
        <path id="ArialMT-6f" d="M 213 1659 
Q 213 2581 725 3025 
Q 1153 3394 1769 3394 
Q 2453 3394 2887 2945 
Q 3322 2497 3322 1706 
Q 3322 1066 3130 698 
Q 2938 331 2570 128 
Q 2203 -75 1769 -75 
Q 1072 -75 642 372 
Q 213 819 213 1659 
z
M 791 1659 
Q 791 1022 1069 705 
Q 1347 388 1769 388 
Q 2188 388 2466 706 
Q 2744 1025 2744 1678 
Q 2744 2294 2464 2611 
Q 2184 2928 1769 2928 
Q 1347 2928 1069 2612 
Q 791 2297 791 1659 
z
" transform="scale(0.015625)"/>
        <path id="ArialMT-69" d="M 425 3934 
L 425 4581 
L 988 4581 
L 988 3934 
L 425 3934 
z
M 425 0 
L 425 3319 
L 988 3319 
L 988 0 
L 425 0 
z
" transform="scale(0.015625)"/>
        <path id="ArialMT-64" d="M 2575 0 
L 2575 419 
Q 2259 -75 1647 -75 
Q 1250 -75 917 144 
Q 584 363 401 755 
Q 219 1147 219 1656 
Q 219 2153 384 2558 
Q 550 2963 881 3178 
Q 1213 3394 1622 3394 
Q 1922 3394 2156 3267 
Q 2391 3141 2538 2938 
L 2538 4581 
L 3097 4581 
L 3097 0 
L 2575 0 
z
M 797 1656 
Q 797 1019 1065 703 
Q 1334 388 1700 388 
Q 2069 388 2326 689 
Q 2584 991 2584 1609 
Q 2584 2291 2321 2609 
Q 2059 2928 1675 2928 
Q 1300 2928 1048 2622 
Q 797 2316 797 1656 
z
" transform="scale(0.015625)"/>
       </defs>
       <use xlink:href="#ArialMT-42"/>
       <use xlink:href="#ArialMT-61" x="66.699219"/>
       <use xlink:href="#ArialMT-63" x="122.314453"/>
       <use xlink:href="#ArialMT-74" x="172.314453"/>
       <use xlink:href="#ArialMT-65" x="200.097656"/>
       <use xlink:href="#ArialMT-72" x="255.712891"/>
       <use xlink:href="#ArialMT-6f" x="289.013672"/>
       <use xlink:href="#ArialMT-69" x="344.628906"/>
       <use xlink:href="#ArialMT-64" x="366.845703"/>
       <use xlink:href="#ArialMT-6f" x="422.460938"/>
       <use xlink:href="#ArialMT-74" x="478.076172"/>
       <use xlink:href="#ArialMT-61" x="505.859375"/>
      </g>
     </g>
    </g>
    <g id="xtick_2">
     <g id="line2d_2">
      <g>
       <use xlink:href="#m2294b0a4b4" x="188.255455" y="594" style="fill: #262626; stroke: #262626; stroke-width: 1.25"/>
      </g>
     </g>
     <g id="text_2">
      <!-- Firmicutes -->
      <g style="fill: #262626" transform="translate(191.099126 654.222031) rotate(-90) scale(0.11 -0.11)">
       <defs>
        <path id="ArialMT-46" d="M 525 0 
L 525 4581 
L 3616 4581 
L 3616 4041 
L 1131 4041 
L 1131 2622 
L 3281 2622 
L 3281 2081 
L 1131 2081 
L 1131 0 
L 525 0 
z
" transform="scale(0.015625)"/>
        <path id="ArialMT-6d" d="M 422 0 
L 422 3319 
L 925 3319 
L 925 2853 
Q 1081 3097 1340 3245 
Q 1600 3394 1931 3394 
Q 2300 3394 2536 3241 
Q 2772 3088 2869 2813 
Q 3263 3394 3894 3394 
Q 4388 3394 4653 3120 
Q 4919 2847 4919 2278 
L 4919 0 
L 4359 0 
L 4359 2091 
Q 4359 2428 4304 2576 
Q 4250 2725 4106 2815 
Q 3963 2906 3769 2906 
Q 3419 2906 3187 2673 
Q 2956 2441 2956 1928 
L 2956 0 
L 2394 0 
L 2394 2156 
Q 2394 2531 2256 2718 
Q 2119 2906 1806 2906 
Q 1569 2906 1367 2781 
Q 1166 2656 1075 2415 
Q 984 2175 984 1722 
L 984 0 
L 422 0 
z
" transform="scale(0.015625)"/>
        <path id="ArialMT-75" d="M 2597 0 
L 2597 488 
Q 2209 -75 1544 -75 
Q 1250 -75 995 37 
Q 741 150 617 320 
Q 494 491 444 738 
Q 409 903 409 1263 
L 409 3319 
L 972 3319 
L 972 1478 
Q 972 1038 1006 884 
Q 1059 663 1231 536 
Q 1403 409 1656 409 
Q 1909 409 2131 539 
Q 2353 669 2445 892 
Q 2538 1116 2538 1541 
L 2538 3319 
L 3100 3319 
L 3100 0 
L 2597 0 
z
" transform="scale(0.015625)"/>
        <path id="ArialMT-73" d="M 197 991 
L 753 1078 
Q 800 744 1014 566 
Q 1228 388 1613 388 
Q 2000 388 2187 545 
Q 2375 703 2375 916 
Q 2375 1106 2209 1216 
Q 2094 1291 1634 1406 
Q 1016 1563 777 1677 
Q 538 1791 414 1992 
Q 291 2194 291 2438 
Q 291 2659 392 2848 
Q 494 3038 669 3163 
Q 800 3259 1026 3326 
Q 1253 3394 1513 3394 
Q 1903 3394 2198 3281 
Q 2494 3169 2634 2976 
Q 2775 2784 2828 2463 
L 2278 2388 
Q 2241 2644 2061 2787 
Q 1881 2931 1553 2931 
Q 1166 2931 1000 2803 
Q 834 2675 834 2503 
Q 834 2394 903 2306 
Q 972 2216 1119 2156 
Q 1203 2125 1616 2013 
Q 2213 1853 2448 1751 
Q 2684 1650 2818 1456 
Q 2953 1263 2953 975 
Q 2953 694 2789 445 
Q 2625 197 2315 61 
Q 2006 -75 1616 -75 
Q 969 -75 630 194 
Q 291 463 197 991 
z
" transform="scale(0.015625)"/>
       </defs>
       <use xlink:href="#ArialMT-46"/>
       <use xlink:href="#ArialMT-69" x="61.083984"/>
       <use xlink:href="#ArialMT-72" x="83.300781"/>
       <use xlink:href="#ArialMT-6d" x="116.601562"/>
       <use xlink:href="#ArialMT-69" x="199.902344"/>
       <use xlink:href="#ArialMT-63" x="222.119141"/>
       <use xlink:href="#ArialMT-75" x="272.119141"/>
       <use xlink:href="#ArialMT-74" x="327.734375"/>
       <use xlink:href="#ArialMT-65" x="355.517578"/>
       <use xlink:href="#ArialMT-73" x="411.132812"/>
      </g>
     </g>
    </g>
    <g id="xtick_3">
     <g id="line2d_3">
      <g>
       <use xlink:href="#m2294b0a4b4" x="280.759091" y="594" style="fill: #262626; stroke: #262626; stroke-width: 1.25"/>
      </g>
     </g>
     <g id="text_3">
      <!-- Proteobacteria -->
      <g style="fill: #262626" transform="translate(283.602763 675.037813) rotate(-90) scale(0.11 -0.11)">
       <defs>
        <path id="ArialMT-50" d="M 494 0 
L 494 4581 
L 2222 4581 
Q 2678 4581 2919 4538 
Q 3256 4481 3484 4323 
Q 3713 4166 3852 3881 
Q 3991 3597 3991 3256 
Q 3991 2672 3619 2267 
Q 3247 1863 2275 1863 
L 1100 1863 
L 1100 0 
L 494 0 
z
M 1100 2403 
L 2284 2403 
Q 2872 2403 3119 2622 
Q 3366 2841 3366 3238 
Q 3366 3525 3220 3729 
Q 3075 3934 2838 4000 
Q 2684 4041 2272 4041 
L 1100 4041 
L 1100 2403 
z
" transform="scale(0.015625)"/>
        <path id="ArialMT-62" d="M 941 0 
L 419 0 
L 419 4581 
L 981 4581 
L 981 2947 
Q 1338 3394 1891 3394 
Q 2197 3394 2470 3270 
Q 2744 3147 2920 2923 
Q 3097 2700 3197 2384 
Q 3297 2069 3297 1709 
Q 3297 856 2875 390 
Q 2453 -75 1863 -75 
Q 1275 -75 941 416 
L 941 0 
z
M 934 1684 
Q 934 1088 1097 822 
Q 1363 388 1816 388 
Q 2184 388 2453 708 
Q 2722 1028 2722 1663 
Q 2722 2313 2464 2622 
Q 2206 2931 1841 2931 
Q 1472 2931 1203 2611 
Q 934 2291 934 1684 
z
" transform="scale(0.015625)"/>
       </defs>
       <use xlink:href="#ArialMT-50"/>
       <use xlink:href="#ArialMT-72" x="66.699219"/>
       <use xlink:href="#ArialMT-6f" x="100"/>
       <use xlink:href="#ArialMT-74" x="155.615234"/>
       <use xlink:href="#ArialMT-65" x="183.398438"/>
       <use xlink:href="#ArialMT-6f" x="239.013672"/>
       <use xlink:href="#ArialMT-62" x="294.628906"/>
       <use xlink:href="#ArialMT-61" x="350.244141"/>
       <use xlink:href="#ArialMT-63" x="405.859375"/>
       <use xlink:href="#ArialMT-74" x="455.859375"/>
       <use xlink:href="#ArialMT-65" x="483.642578"/>
       <use xlink:href="#ArialMT-72" x="539.257812"/>
       <use xlink:href="#ArialMT-69" x="572.558594"/>
       <use xlink:href="#ArialMT-61" x="594.775391"/>
      </g>
     </g>
    </g>
    <g id="xtick_4">
     <g id="line2d_4">
      <g>
       <use xlink:href="#m2294b0a4b4" x="373.262727" y="594" style="fill: #262626; stroke: #262626; stroke-width: 1.25"/>
      </g>
     </g>
     <g id="text_4">
      <!-- Cyanobacteria -->
      <g style="fill: #262626" transform="translate(376.108977 674.425938) rotate(-90) scale(0.11 -0.11)">
       <defs>
        <path id="ArialMT-43" d="M 3763 1606 
L 4369 1453 
Q 4178 706 3683 314 
Q 3188 -78 2472 -78 
Q 1731 -78 1267 223 
Q 803 525 561 1097 
Q 319 1669 319 2325 
Q 319 3041 592 3573 
Q 866 4106 1370 4382 
Q 1875 4659 2481 4659 
Q 3169 4659 3637 4309 
Q 4106 3959 4291 3325 
L 3694 3184 
Q 3534 3684 3231 3912 
Q 2928 4141 2469 4141 
Q 1941 4141 1586 3887 
Q 1231 3634 1087 3207 
Q 944 2781 944 2328 
Q 944 1744 1114 1308 
Q 1284 872 1643 656 
Q 2003 441 2422 441 
Q 2931 441 3284 734 
Q 3638 1028 3763 1606 
z
" transform="scale(0.015625)"/>
        <path id="ArialMT-79" d="M 397 -1278 
L 334 -750 
Q 519 -800 656 -800 
Q 844 -800 956 -737 
Q 1069 -675 1141 -563 
Q 1194 -478 1313 -144 
Q 1328 -97 1363 -6 
L 103 3319 
L 709 3319 
L 1400 1397 
Q 1534 1031 1641 628 
Q 1738 1016 1872 1384 
L 2581 3319 
L 3144 3319 
L 1881 -56 
Q 1678 -603 1566 -809 
Q 1416 -1088 1222 -1217 
Q 1028 -1347 759 -1347 
Q 597 -1347 397 -1278 
z
" transform="scale(0.015625)"/>
        <path id="ArialMT-6e" d="M 422 0 
L 422 3319 
L 928 3319 
L 928 2847 
Q 1294 3394 1984 3394 
Q 2284 3394 2536 3286 
Q 2788 3178 2913 3003 
Q 3038 2828 3088 2588 
Q 3119 2431 3119 2041 
L 3119 0 
L 2556 0 
L 2556 2019 
Q 2556 2363 2490 2533 
Q 2425 2703 2258 2804 
Q 2091 2906 1866 2906 
Q 1506 2906 1245 2678 
Q 984 2450 984 1813 
L 984 0 
L 422 0 
z
" transform="scale(0.015625)"/>
       </defs>
       <use xlink:href="#ArialMT-43"/>
       <use xlink:href="#ArialMT-79" x="72.216797"/>
       <use xlink:href="#ArialMT-61" x="122.216797"/>
       <use xlink:href="#ArialMT-6e" x="177.832031"/>
       <use xlink:href="#ArialMT-6f" x="233.447266"/>
       <use xlink:href="#ArialMT-62" x="289.0625"/>
       <use xlink:href="#ArialMT-61" x="344.677734"/>
       <use xlink:href="#ArialMT-63" x="400.292969"/>
       <use xlink:href="#ArialMT-74" x="450.292969"/>
       <use xlink:href="#ArialMT-65" x="478.076172"/>
       <use xlink:href="#ArialMT-72" x="533.691406"/>
       <use xlink:href="#ArialMT-69" x="566.992188"/>
       <use xlink:href="#ArialMT-61" x="589.208984"/>
      </g>
     </g>
    </g>
    <g id="xtick_5">
     <g id="line2d_5">
      <g>
       <use xlink:href="#m2294b0a4b4" x="465.766364" y="594" style="fill: #262626; stroke: #262626; stroke-width: 1.25"/>
      </g>
     </g>
     <g id="text_5">
      <!-- Deferribacterota -->
      <g style="fill: #262626" transform="translate(468.610036 682.363125) rotate(-90) scale(0.11 -0.11)">
       <defs>
        <path id="ArialMT-44" d="M 494 0 
L 494 4581 
L 2072 4581 
Q 2606 4581 2888 4516 
Q 3281 4425 3559 4188 
Q 3922 3881 4101 3404 
Q 4281 2928 4281 2316 
Q 4281 1794 4159 1391 
Q 4038 988 3847 723 
Q 3656 459 3429 307 
Q 3203 156 2883 78 
Q 2563 0 2147 0 
L 494 0 
z
M 1100 541 
L 2078 541 
Q 2531 541 2789 625 
Q 3047 709 3200 863 
Q 3416 1078 3536 1442 
Q 3656 1806 3656 2325 
Q 3656 3044 3420 3430 
Q 3184 3816 2847 3947 
Q 2603 4041 2063 4041 
L 1100 4041 
L 1100 541 
z
" transform="scale(0.015625)"/>
        <path id="ArialMT-66" d="M 556 0 
L 556 2881 
L 59 2881 
L 59 3319 
L 556 3319 
L 556 3672 
Q 556 4006 616 4169 
Q 697 4388 901 4523 
Q 1106 4659 1475 4659 
Q 1713 4659 2000 4603 
L 1916 4113 
Q 1741 4144 1584 4144 
Q 1328 4144 1222 4034 
Q 1116 3925 1116 3625 
L 1116 3319 
L 1763 3319 
L 1763 2881 
L 1116 2881 
L 1116 0 
L 556 0 
z
" transform="scale(0.015625)"/>
       </defs>
       <use xlink:href="#ArialMT-44"/>
       <use xlink:href="#ArialMT-65" x="72.216797"/>
       <use xlink:href="#ArialMT-66" x="127.832031"/>
       <use xlink:href="#ArialMT-65" x="155.615234"/>
       <use xlink:href="#ArialMT-72" x="211.230469"/>
       <use xlink:href="#ArialMT-72" x="244.53125"/>
       <use xlink:href="#ArialMT-69" x="277.832031"/>
       <use xlink:href="#ArialMT-62" x="300.048828"/>
       <use xlink:href="#ArialMT-61" x="355.664062"/>
       <use xlink:href="#ArialMT-63" x="411.279297"/>
       <use xlink:href="#ArialMT-74" x="461.279297"/>
       <use xlink:href="#ArialMT-65" x="489.0625"/>
       <use xlink:href="#ArialMT-72" x="544.677734"/>
       <use xlink:href="#ArialMT-6f" x="577.978516"/>
       <use xlink:href="#ArialMT-74" x="633.59375"/>
       <use xlink:href="#ArialMT-61" x="661.376953"/>
      </g>
     </g>
    </g>
    <g id="xtick_6">
     <g id="line2d_6">
      <g>
       <use xlink:href="#m2294b0a4b4" x="558.27" y="594" style="fill: #262626; stroke: #262626; stroke-width: 1.25"/>
      </g>
     </g>
     <g id="text_6">
      <!-- Patescibacteria -->
      <g style="fill: #262626" transform="translate(561.113672 678.702188) rotate(-90) scale(0.11 -0.11)">
       <use xlink:href="#ArialMT-50"/>
       <use xlink:href="#ArialMT-61" x="66.699219"/>
       <use xlink:href="#ArialMT-74" x="122.314453"/>
       <use xlink:href="#ArialMT-65" x="150.097656"/>
       <use xlink:href="#ArialMT-73" x="205.712891"/>
       <use xlink:href="#ArialMT-63" x="255.712891"/>
       <use xlink:href="#ArialMT-69" x="305.712891"/>
       <use xlink:href="#ArialMT-62" x="327.929688"/>
       <use xlink:href="#ArialMT-61" x="383.544922"/>
       <use xlink:href="#ArialMT-63" x="439.160156"/>
       <use xlink:href="#ArialMT-74" x="489.160156"/>
       <use xlink:href="#ArialMT-65" x="516.943359"/>
       <use xlink:href="#ArialMT-72" x="572.558594"/>
       <use xlink:href="#ArialMT-69" x="605.859375"/>
       <use xlink:href="#ArialMT-61" x="628.076172"/>
      </g>
     </g>
    </g>
    <g id="xtick_7">
     <g id="line2d_7">
      <g>
       <use xlink:href="#m2294b0a4b4" x="650.773636" y="594" style="fill: #262626; stroke: #262626; stroke-width: 1.25"/>
      </g>
     </g>
     <g id="text_7">
      <!-- Verrucomicrobiota -->
      <g style="fill: #262626" transform="translate(653.617308 692.14625) rotate(-90) scale(0.11 -0.11)">
       <defs>
        <path id="ArialMT-56" d="M 1803 0 
L 28 4581 
L 684 4581 
L 1875 1253 
Q 2019 853 2116 503 
Q 2222 878 2363 1253 
L 3600 4581 
L 4219 4581 
L 2425 0 
L 1803 0 
z
" transform="scale(0.015625)"/>
       </defs>
       <use xlink:href="#ArialMT-56"/>
       <use xlink:href="#ArialMT-65" x="61.199219"/>
       <use xlink:href="#ArialMT-72" x="116.814453"/>
       <use xlink:href="#ArialMT-72" x="150.115234"/>
       <use xlink:href="#ArialMT-75" x="183.416016"/>
       <use xlink:href="#ArialMT-63" x="239.03125"/>
       <use xlink:href="#ArialMT-6f" x="289.03125"/>
       <use xlink:href="#ArialMT-6d" x="344.646484"/>
       <use xlink:href="#ArialMT-69" x="427.947266"/>
       <use xlink:href="#ArialMT-63" x="450.164062"/>
       <use xlink:href="#ArialMT-72" x="500.164062"/>
       <use xlink:href="#ArialMT-6f" x="533.464844"/>
       <use xlink:href="#ArialMT-62" x="589.080078"/>
       <use xlink:href="#ArialMT-69" x="644.695312"/>
       <use xlink:href="#ArialMT-6f" x="666.912109"/>
       <use xlink:href="#ArialMT-74" x="722.527344"/>
       <use xlink:href="#ArialMT-61" x="750.310547"/>
      </g>
     </g>
    </g>
    <g id="xtick_8">
     <g id="line2d_8">
      <g>
       <use xlink:href="#m2294b0a4b4" x="743.277273" y="594" style="fill: #262626; stroke: #262626; stroke-width: 1.25"/>
      </g>
     </g>
     <g id="text_8">
      <!-- Actinobacteriota -->
      <g style="fill: #262626" transform="translate(746.120945 682.375156) rotate(-90) scale(0.11 -0.11)">
       <defs>
        <path id="ArialMT-41" d="M -9 0 
L 1750 4581 
L 2403 4581 
L 4278 0 
L 3588 0 
L 3053 1388 
L 1138 1388 
L 634 0 
L -9 0 
z
M 1313 1881 
L 2866 1881 
L 2388 3150 
Q 2169 3728 2063 4100 
Q 1975 3659 1816 3225 
L 1313 1881 
z
" transform="scale(0.015625)"/>
       </defs>
       <use xlink:href="#ArialMT-41"/>
       <use xlink:href="#ArialMT-63" x="66.699219"/>
       <use xlink:href="#ArialMT-74" x="116.699219"/>
       <use xlink:href="#ArialMT-69" x="144.482422"/>
       <use xlink:href="#ArialMT-6e" x="166.699219"/>
       <use xlink:href="#ArialMT-6f" x="222.314453"/>
       <use xlink:href="#ArialMT-62" x="277.929688"/>
       <use xlink:href="#ArialMT-61" x="333.544922"/>
       <use xlink:href="#ArialMT-63" x="389.160156"/>
       <use xlink:href="#ArialMT-74" x="439.160156"/>
       <use xlink:href="#ArialMT-65" x="466.943359"/>
       <use xlink:href="#ArialMT-72" x="522.558594"/>
       <use xlink:href="#ArialMT-69" x="555.859375"/>
       <use xlink:href="#ArialMT-6f" x="578.076172"/>
       <use xlink:href="#ArialMT-74" x="633.691406"/>
       <use xlink:href="#ArialMT-61" x="661.474609"/>
      </g>
     </g>
    </g>
    <g id="xtick_9">
     <g id="line2d_9">
      <g>
       <use xlink:href="#m2294b0a4b4" x="835.780909" y="594" style="fill: #262626; stroke: #262626; stroke-width: 1.25"/>
      </g>
     </g>
    </g>
    <g id="xtick_10">
     <g id="line2d_10">
      <g>
       <use xlink:href="#m2294b0a4b4" x="928.284545" y="594" style="fill: #262626; stroke: #262626; stroke-width: 1.25"/>
      </g>
     </g>
     <g id="text_9">
      <!-- Campilobacterota -->
      <g style="fill: #262626" transform="translate(931.195249 689.705625) rotate(-90) scale(0.11 -0.11)">
       <defs>
        <path id="ArialMT-70" d="M 422 -1272 
L 422 3319 
L 934 3319 
L 934 2888 
Q 1116 3141 1344 3267 
Q 1572 3394 1897 3394 
Q 2322 3394 2647 3175 
Q 2972 2956 3137 2557 
Q 3303 2159 3303 1684 
Q 3303 1175 3120 767 
Q 2938 359 2589 142 
Q 2241 -75 1856 -75 
Q 1575 -75 1351 44 
Q 1128 163 984 344 
L 984 -1272 
L 422 -1272 
z
M 931 1641 
Q 931 1000 1190 694 
Q 1450 388 1819 388 
Q 2194 388 2461 705 
Q 2728 1022 2728 1688 
Q 2728 2322 2467 2637 
Q 2206 2953 1844 2953 
Q 1484 2953 1207 2617 
Q 931 2281 931 1641 
z
" transform="scale(0.015625)"/>
        <path id="ArialMT-6c" d="M 409 0 
L 409 4581 
L 972 4581 
L 972 0 
L 409 0 
z
" transform="scale(0.015625)"/>
       </defs>
       <use xlink:href="#ArialMT-43"/>
       <use xlink:href="#ArialMT-61" x="72.216797"/>
       <use xlink:href="#ArialMT-6d" x="127.832031"/>
       <use xlink:href="#ArialMT-70" x="211.132812"/>
       <use xlink:href="#ArialMT-69" x="266.748047"/>
       <use xlink:href="#ArialMT-6c" x="288.964844"/>
       <use xlink:href="#ArialMT-6f" x="311.181641"/>
       <use xlink:href="#ArialMT-62" x="366.796875"/>
       <use xlink:href="#ArialMT-61" x="422.412109"/>
       <use xlink:href="#ArialMT-63" x="478.027344"/>
       <use xlink:href="#ArialMT-74" x="528.027344"/>
       <use xlink:href="#ArialMT-65" x="555.810547"/>
       <use xlink:href="#ArialMT-72" x="611.425781"/>
       <use xlink:href="#ArialMT-6f" x="644.726562"/>
       <use xlink:href="#ArialMT-74" x="700.341797"/>
       <use xlink:href="#ArialMT-61" x="728.125"/>
      </g>
     </g>
    </g>
    <g id="xtick_11">
     <g id="line2d_11">
      <g>
       <use xlink:href="#m2294b0a4b4" x="1020.788182" y="594" style="fill: #262626; stroke: #262626; stroke-width: 1.25"/>
      </g>
     </g>
     <g id="text_10">
      <!-- Desulfobacterota -->
      <g style="fill: #262626" transform="translate(1023.631854 686.654844) rotate(-90) scale(0.11 -0.11)">
       <use xlink:href="#ArialMT-44"/>
       <use xlink:href="#ArialMT-65" x="72.216797"/>
       <use xlink:href="#ArialMT-73" x="127.832031"/>
       <use xlink:href="#ArialMT-75" x="177.832031"/>
       <use xlink:href="#ArialMT-6c" x="233.447266"/>
       <use xlink:href="#ArialMT-66" x="255.664062"/>
       <use xlink:href="#ArialMT-6f" x="283.447266"/>
       <use xlink:href="#ArialMT-62" x="339.0625"/>
       <use xlink:href="#ArialMT-61" x="394.677734"/>
       <use xlink:href="#ArialMT-63" x="450.292969"/>
       <use xlink:href="#ArialMT-74" x="500.292969"/>
       <use xlink:href="#ArialMT-65" x="528.076172"/>
       <use xlink:href="#ArialMT-72" x="583.691406"/>
       <use xlink:href="#ArialMT-6f" x="616.992188"/>
       <use xlink:href="#ArialMT-74" x="672.607422"/>
       <use xlink:href="#ArialMT-61" x="700.390625"/>
      </g>
     </g>
    </g>
    <g id="text_11">
     <!-- Taxonomy -->
     <g style="fill: #262626" transform="translate(530.92875 704.735625) scale(0.12 -0.12)">
      <defs>
       <path id="ArialMT-54" d="M 1659 0 
L 1659 4041 
L 150 4041 
L 150 4581 
L 3781 4581 
L 3781 4041 
L 2266 4041 
L 2266 0 
L 1659 0 
z
" transform="scale(0.015625)"/>
       <path id="ArialMT-78" d="M 47 0 
L 1259 1725 
L 138 3319 
L 841 3319 
L 1350 2541 
Q 1494 2319 1581 2169 
Q 1719 2375 1834 2534 
L 2394 3319 
L 3066 3319 
L 1919 1756 
L 3153 0 
L 2463 0 
L 1781 1031 
L 1600 1309 
L 728 0 
L 47 0 
z
" transform="scale(0.015625)"/>
      </defs>
      <use xlink:href="#ArialMT-54"/>
      <use xlink:href="#ArialMT-61" x="49.958984"/>
      <use xlink:href="#ArialMT-78" x="105.574219"/>
      <use xlink:href="#ArialMT-6f" x="155.574219"/>
      <use xlink:href="#ArialMT-6e" x="211.189453"/>
      <use xlink:href="#ArialMT-6f" x="266.804688"/>
      <use xlink:href="#ArialMT-6d" x="322.419922"/>
      <use xlink:href="#ArialMT-79" x="405.720703"/>
     </g>
    </g>
   </g>
   <g id="matplotlib.axis_2">
    <g id="ytick_1">
     <g id="line2d_12">
      <defs>
       <path id="me552ad9f78" d="M 0 0 
L -6 0 
" style="stroke: #262626; stroke-width: 1.25"/>
      </defs>
      <g>
       <use xlink:href="#me552ad9f78" x="49.5" y="568.254545" style="fill: #262626; stroke: #262626; stroke-width: 1.25"/>
      </g>
     </g>
     <g id="text_12">
      <!-- 0 -->
      <g style="fill: #262626" transform="translate(33.882969 572.191342) scale(0.11 -0.11)">
       <defs>
        <path id="ArialMT-30" d="M 266 2259 
Q 266 3072 433 3567 
Q 600 4063 929 4331 
Q 1259 4600 1759 4600 
Q 2128 4600 2406 4451 
Q 2684 4303 2865 4023 
Q 3047 3744 3150 3342 
Q 3253 2941 3253 2259 
Q 3253 1453 3087 958 
Q 2922 463 2592 192 
Q 2263 -78 1759 -78 
Q 1097 -78 719 397 
Q 266 969 266 2259 
z
M 844 2259 
Q 844 1131 1108 757 
Q 1372 384 1759 384 
Q 2147 384 2411 759 
Q 2675 1134 2675 2259 
Q 2675 3391 2411 3762 
Q 2147 4134 1753 4134 
Q 1366 4134 1134 3806 
Q 844 3388 844 2259 
z
" transform="scale(0.015625)"/>
       </defs>
       <use xlink:href="#ArialMT-30"/>
      </g>
     </g>
    </g>
    <g id="ytick_2">
     <g id="line2d_13">
      <g>
       <use xlink:href="#me552ad9f78" x="49.5" y="483.270038" style="fill: #262626; stroke: #262626; stroke-width: 1.25"/>
      </g>
     </g>
     <g id="text_13">
      <!-- 2 -->
      <g style="fill: #262626" transform="translate(33.882969 487.206835) scale(0.11 -0.11)">
       <defs>
        <path id="ArialMT-32" d="M 3222 541 
L 3222 0 
L 194 0 
Q 188 203 259 391 
Q 375 700 629 1000 
Q 884 1300 1366 1694 
Q 2113 2306 2375 2664 
Q 2638 3022 2638 3341 
Q 2638 3675 2398 3904 
Q 2159 4134 1775 4134 
Q 1369 4134 1125 3890 
Q 881 3647 878 3216 
L 300 3275 
Q 359 3922 746 4261 
Q 1134 4600 1788 4600 
Q 2447 4600 2831 4234 
Q 3216 3869 3216 3328 
Q 3216 3053 3103 2787 
Q 2991 2522 2730 2228 
Q 2469 1934 1863 1422 
Q 1356 997 1212 845 
Q 1069 694 975 541 
L 3222 541 
z
" transform="scale(0.015625)"/>
       </defs>
       <use xlink:href="#ArialMT-32"/>
      </g>
     </g>
    </g>
    <g id="ytick_3">
     <g id="line2d_14">
      <g>
       <use xlink:href="#me552ad9f78" x="49.5" y="398.285532" style="fill: #262626; stroke: #262626; stroke-width: 1.25"/>
      </g>
     </g>
     <g id="text_14">
      <!-- 4 -->
      <g style="fill: #262626" transform="translate(33.882969 402.222328) scale(0.11 -0.11)">
       <defs>
        <path id="ArialMT-34" d="M 2069 0 
L 2069 1097 
L 81 1097 
L 81 1613 
L 2172 4581 
L 2631 4581 
L 2631 1613 
L 3250 1613 
L 3250 1097 
L 2631 1097 
L 2631 0 
L 2069 0 
z
M 2069 1613 
L 2069 3678 
L 634 1613 
L 2069 1613 
z
" transform="scale(0.015625)"/>
       </defs>
       <use xlink:href="#ArialMT-34"/>
      </g>
     </g>
    </g>
    <g id="ytick_4">
     <g id="line2d_15">
      <g>
       <use xlink:href="#me552ad9f78" x="49.5" y="313.301025" style="fill: #262626; stroke: #262626; stroke-width: 1.25"/>
      </g>
     </g>
     <g id="text_15">
      <!-- 6 -->
      <g style="fill: #262626" transform="translate(33.882969 317.237821) scale(0.11 -0.11)">
       <defs>
        <path id="ArialMT-36" d="M 3184 3459 
L 2625 3416 
Q 2550 3747 2413 3897 
Q 2184 4138 1850 4138 
Q 1581 4138 1378 3988 
Q 1113 3794 959 3422 
Q 806 3050 800 2363 
Q 1003 2672 1297 2822 
Q 1591 2972 1913 2972 
Q 2475 2972 2870 2558 
Q 3266 2144 3266 1488 
Q 3266 1056 3080 686 
Q 2894 316 2569 119 
Q 2244 -78 1831 -78 
Q 1128 -78 684 439 
Q 241 956 241 2144 
Q 241 3472 731 4075 
Q 1159 4600 1884 4600 
Q 2425 4600 2770 4297 
Q 3116 3994 3184 3459 
z
M 888 1484 
Q 888 1194 1011 928 
Q 1134 663 1356 523 
Q 1578 384 1822 384 
Q 2178 384 2434 671 
Q 2691 959 2691 1453 
Q 2691 1928 2437 2201 
Q 2184 2475 1800 2475 
Q 1419 2475 1153 2201 
Q 888 1928 888 1484 
z
" transform="scale(0.015625)"/>
       </defs>
       <use xlink:href="#ArialMT-36"/>
      </g>
     </g>
    </g>
    <g id="ytick_5">
     <g id="line2d_16">
      <g>
       <use xlink:href="#me552ad9f78" x="49.5" y="228.316518" style="fill: #262626; stroke: #262626; stroke-width: 1.25"/>
      </g>
     </g>
     <g id="text_16">
      <!-- 8 -->
      <g style="fill: #262626" transform="translate(33.882969 232.253314) scale(0.11 -0.11)">
       <defs>
        <path id="ArialMT-38" d="M 1131 2484 
Q 781 2613 612 2850 
Q 444 3088 444 3419 
Q 444 3919 803 4259 
Q 1163 4600 1759 4600 
Q 2359 4600 2725 4251 
Q 3091 3903 3091 3403 
Q 3091 3084 2923 2848 
Q 2756 2613 2416 2484 
Q 2838 2347 3058 2040 
Q 3278 1734 3278 1309 
Q 3278 722 2862 322 
Q 2447 -78 1769 -78 
Q 1091 -78 675 323 
Q 259 725 259 1325 
Q 259 1772 486 2073 
Q 713 2375 1131 2484 
z
M 1019 3438 
Q 1019 3113 1228 2906 
Q 1438 2700 1772 2700 
Q 2097 2700 2305 2904 
Q 2513 3109 2513 3406 
Q 2513 3716 2298 3927 
Q 2084 4138 1766 4138 
Q 1444 4138 1231 3931 
Q 1019 3725 1019 3438 
z
M 838 1322 
Q 838 1081 952 856 
Q 1066 631 1291 507 
Q 1516 384 1775 384 
Q 2178 384 2440 643 
Q 2703 903 2703 1303 
Q 2703 1709 2433 1975 
Q 2163 2241 1756 2241 
Q 1359 2241 1098 1978 
Q 838 1716 838 1322 
z
" transform="scale(0.015625)"/>
       </defs>
       <use xlink:href="#ArialMT-38"/>
      </g>
     </g>
    </g>
    <g id="ytick_6">
     <g id="line2d_17">
      <g>
       <use xlink:href="#me552ad9f78" x="49.5" y="143.332011" style="fill: #262626; stroke: #262626; stroke-width: 1.25"/>
      </g>
     </g>
     <g id="text_17">
      <!-- 10 -->
      <g style="fill: #262626" transform="translate(27.765938 147.268807) scale(0.11 -0.11)">
       <defs>
        <path id="ArialMT-31" d="M 2384 0 
L 1822 0 
L 1822 3584 
Q 1619 3391 1289 3197 
Q 959 3003 697 2906 
L 697 3450 
Q 1169 3672 1522 3987 
Q 1875 4303 2022 4600 
L 2384 4600 
L 2384 0 
z
" transform="scale(0.015625)"/>
       </defs>
       <use xlink:href="#ArialMT-31"/>
       <use xlink:href="#ArialMT-30" x="55.615234"/>
      </g>
     </g>
    </g>
    <g id="ytick_7">
     <g id="line2d_18">
      <g>
       <use xlink:href="#me552ad9f78" x="49.5" y="58.347504" style="fill: #262626; stroke: #262626; stroke-width: 1.25"/>
      </g>
     </g>
     <g id="text_18">
      <!-- 12 -->
      <g style="fill: #262626" transform="translate(27.765938 62.2843) scale(0.11 -0.11)">
       <use xlink:href="#ArialMT-31"/>
       <use xlink:href="#ArialMT-32" x="55.615234"/>
      </g>
     </g>
    </g>
    <g id="text_19">
     <!-- log(# of reads) -->
     <g style="fill: #262626" transform="translate(21.240313 349.483125) rotate(-90) scale(0.12 -0.12)">
      <defs>
       <path id="ArialMT-67" d="M 319 -275 
L 866 -356 
Q 900 -609 1056 -725 
Q 1266 -881 1628 -881 
Q 2019 -881 2231 -725 
Q 2444 -569 2519 -288 
Q 2563 -116 2559 434 
Q 2191 0 1641 0 
Q 956 0 581 494 
Q 206 988 206 1678 
Q 206 2153 378 2554 
Q 550 2956 876 3175 
Q 1203 3394 1644 3394 
Q 2231 3394 2613 2919 
L 2613 3319 
L 3131 3319 
L 3131 450 
Q 3131 -325 2973 -648 
Q 2816 -972 2473 -1159 
Q 2131 -1347 1631 -1347 
Q 1038 -1347 672 -1080 
Q 306 -813 319 -275 
z
M 784 1719 
Q 784 1066 1043 766 
Q 1303 466 1694 466 
Q 2081 466 2343 764 
Q 2606 1063 2606 1700 
Q 2606 2309 2336 2618 
Q 2066 2928 1684 2928 
Q 1309 2928 1046 2623 
Q 784 2319 784 1719 
z
" transform="scale(0.015625)"/>
       <path id="ArialMT-28" d="M 1497 -1347 
Q 1031 -759 709 28 
Q 388 816 388 1659 
Q 388 2403 628 3084 
Q 909 3875 1497 4659 
L 1900 4659 
Q 1522 4009 1400 3731 
Q 1209 3300 1100 2831 
Q 966 2247 966 1656 
Q 966 153 1900 -1347 
L 1497 -1347 
z
" transform="scale(0.015625)"/>
       <path id="ArialMT-23" d="M 322 -78 
L 594 1253 
L 66 1253 
L 66 1719 
L 688 1719 
L 919 2853 
L 66 2853 
L 66 3319 
L 1013 3319 
L 1284 4659 
L 1753 4659 
L 1481 3319 
L 2466 3319 
L 2738 4659 
L 3209 4659 
L 2938 3319 
L 3478 3319 
L 3478 2853 
L 2844 2853 
L 2609 1719 
L 3478 1719 
L 3478 1253 
L 2516 1253 
L 2244 -78 
L 1775 -78 
L 2044 1253 
L 1063 1253 
L 791 -78 
L 322 -78 
z
M 1156 1719 
L 2138 1719 
L 2372 2853 
L 1388 2853 
L 1156 1719 
z
" transform="scale(0.015625)"/>
       <path id="ArialMT-20" transform="scale(0.015625)"/>
       <path id="ArialMT-29" d="M 791 -1347 
L 388 -1347 
Q 1322 153 1322 1656 
Q 1322 2244 1188 2822 
Q 1081 3291 891 3722 
Q 769 4003 388 4659 
L 791 4659 
Q 1378 3875 1659 3084 
Q 1900 2403 1900 1659 
Q 1900 816 1576 28 
Q 1253 -759 791 -1347 
z
" transform="scale(0.015625)"/>
      </defs>
      <use xlink:href="#ArialMT-6c"/>
      <use xlink:href="#ArialMT-6f" x="22.216797"/>
      <use xlink:href="#ArialMT-67" x="77.832031"/>
      <use xlink:href="#ArialMT-28" x="133.447266"/>
      <use xlink:href="#ArialMT-23" x="166.748047"/>
      <use xlink:href="#ArialMT-20" x="222.363281"/>
      <use xlink:href="#ArialMT-6f" x="250.146484"/>
      <use xlink:href="#ArialMT-66" x="305.761719"/>
      <use xlink:href="#ArialMT-20" x="333.544922"/>
      <use xlink:href="#ArialMT-72" x="361.328125"/>
      <use xlink:href="#ArialMT-65" x="394.628906"/>
      <use xlink:href="#ArialMT-61" x="450.244141"/>
      <use xlink:href="#ArialMT-64" x="505.859375"/>
      <use xlink:href="#ArialMT-73" x="561.474609"/>
      <use xlink:href="#ArialMT-29" x="611.474609"/>
     </g>
    </g>
   </g>
   <g id="patch_3">
    <path d="M 59.120378 108.966297 
L 95.381804 108.966297 
L 95.381804 90.168649 
L 59.120378 90.168649 
L 59.120378 108.966297 
z
" clip-path="url(#pfc6e44aba6)" style="fill: #abc9ea; stroke: #737373; stroke-width: 1.5; stroke-linejoin: miter"/>
   </g>
   <g id="patch_4">
    <path d="M 96.121833 111.023148 
L 132.383258 111.023148 
L 132.383258 82.826186 
L 96.121833 82.826186 
L 96.121833 111.023148 
z
" clip-path="url(#pfc6e44aba6)" style="fill: #efb792; stroke: #737373; stroke-width: 1.5; stroke-linejoin: miter"/>
   </g>
   <g id="patch_5">
    <path d="M 151.624015 177.660754 
L 187.88544 177.660754 
L 187.88544 92.439388 
L 151.624015 92.439388 
L 151.624015 177.660754 
z
" clip-path="url(#pfc6e44aba6)" style="fill: #abc9ea; stroke: #737373; stroke-width: 1.5; stroke-linejoin: miter"/>
   </g>
   <g id="patch_6">
    <path d="M 188.625469 135.564944 
L 224.886895 135.564944 
L 224.886895 107.835014 
L 188.625469 107.835014 
L 188.625469 135.564944 
z
" clip-path="url(#pfc6e44aba6)" style="fill: #efb792; stroke: #737373; stroke-width: 1.5; stroke-linejoin: miter"/>
   </g>
   <g id="patch_7">
    <path d="M 244.127651 296.015682 
L 280.389076 296.015682 
L 280.389076 269.074463 
L 244.127651 269.074463 
L 244.127651 296.015682 
z
" clip-path="url(#pfc6e44aba6)" style="fill: #abc9ea; stroke: #737373; stroke-width: 1.5; stroke-linejoin: miter"/>
   </g>
   <g id="patch_8">
    <path d="M 281.129105 281.559354 
L 317.390531 281.559354 
L 317.390531 236.049192 
L 281.129105 236.049192 
L 281.129105 281.559354 
z
" clip-path="url(#pfc6e44aba6)" style="fill: #efb792; stroke: #737373; stroke-width: 1.5; stroke-linejoin: miter"/>
   </g>
   <g id="patch_9">
    <path d="M 336.631287 513.822351 
L 372.892713 513.822351 
L 372.892713 252.298188 
L 336.631287 252.298188 
L 336.631287 513.822351 
z
" clip-path="url(#pfc6e44aba6)" style="fill: #abc9ea; stroke: #737373; stroke-width: 1.5; stroke-linejoin: miter"/>
   </g>
   <g id="patch_10">
    <path d="M 373.632742 377.810745 
L 409.894167 377.810745 
L 409.894167 266.580727 
L 373.632742 266.580727 
L 373.632742 377.810745 
z
" clip-path="url(#pfc6e44aba6)" style="fill: #efb792; stroke: #737373; stroke-width: 1.5; stroke-linejoin: miter"/>
   </g>
   <g id="patch_11">
    <path d="M 429.134924 568.254545 
L 465.396349 568.254545 
L 465.396349 568.254545 
L 429.134924 568.254545 
L 429.134924 568.254545 
z
" clip-path="url(#pfc6e44aba6)" style="fill: #abc9ea; stroke: #737373; stroke-width: 1.5; stroke-linejoin: miter"/>
   </g>
   <g id="patch_12">
    <path d="M 466.136378 568.254545 
L 502.397804 568.254545 
L 502.397804 314.148939 
L 466.136378 314.148939 
L 466.136378 568.254545 
z
" clip-path="url(#pfc6e44aba6)" style="fill: #efb792; stroke: #737373; stroke-width: 1.5; stroke-linejoin: miter"/>
   </g>
   <g id="patch_13">
    <path d="M 521.63856 510.393509 
L 557.899985 510.393509 
L 557.899985 295.040357 
L 521.63856 295.040357 
L 521.63856 510.393509 
z
" clip-path="url(#pfc6e44aba6)" style="fill: #abc9ea; stroke: #737373; stroke-width: 1.5; stroke-linejoin: miter"/>
   </g>
   <g id="patch_14">
    <path d="M 558.640015 362.434686 
L 594.90144 362.434686 
L 594.90144 299.508779 
L 558.640015 299.508779 
L 558.640015 362.434686 
z
" clip-path="url(#pfc6e44aba6)" style="fill: #efb792; stroke: #737373; stroke-width: 1.5; stroke-linejoin: miter"/>
   </g>
   <g id="patch_15">
    <path d="M 614.142196 568.254545 
L 650.403622 568.254545 
L 650.403622 433.317 
L 614.142196 433.317 
L 614.142196 568.254545 
z
" clip-path="url(#pfc6e44aba6)" style="fill: #abc9ea; stroke: #737373; stroke-width: 1.5; stroke-linejoin: miter"/>
   </g>
   <g id="patch_16">
    <path d="M 651.143651 372.871011 
L 687.405076 372.871011 
L 687.405076 336.586624 
L 651.143651 336.586624 
L 651.143651 372.871011 
z
" clip-path="url(#pfc6e44aba6)" style="fill: #efb792; stroke: #737373; stroke-width: 1.5; stroke-linejoin: miter"/>
   </g>
   <g id="patch_17">
    <path d="M 706.645833 568.254545 
L 742.907258 568.254545 
L 742.907258 395.593502 
L 706.645833 395.593502 
L 706.645833 568.254545 
z
" clip-path="url(#pfc6e44aba6)" style="fill: #abc9ea; stroke: #737373; stroke-width: 1.5; stroke-linejoin: miter"/>
   </g>
   <g id="patch_18">
    <path d="M 743.647287 475.587107 
L 779.908713 475.587107 
L 779.908713 437.624282 
L 743.647287 437.624282 
L 743.647287 475.587107 
z
" clip-path="url(#pfc6e44aba6)" style="fill: #efb792; stroke: #737373; stroke-width: 1.5; stroke-linejoin: miter"/>
   </g>
   <g id="patch_19">
    <path d="M 836.150924 568.254545 
L 872.412349 568.254545 
L 872.412349 547.583019 
L 836.150924 547.583019 
L 836.150924 568.254545 
z
" clip-path="url(#pfc6e44aba6)" style="fill: #efb792; stroke: #737373; stroke-width: 1.5; stroke-linejoin: miter"/>
   </g>
   <g id="patch_20">
    <path d="M 928.65456 568.254545 
L 964.915985 568.254545 
L 964.915985 568.254545 
L 928.65456 568.254545 
L 928.65456 568.254545 
z
" clip-path="url(#pfc6e44aba6)" style="fill: #efb792; stroke: #737373; stroke-width: 1.5; stroke-linejoin: miter"/>
   </g>
   <g id="patch_21">
    <path d="M 1021.158196 568.254545 
L 1057.419622 568.254545 
L 1057.419622 568.254545 
L 1021.158196 568.254545 
L 1021.158196 568.254545 
z
" clip-path="url(#pfc6e44aba6)" style="fill: #efb792; stroke: #737373; stroke-width: 1.5; stroke-linejoin: miter"/>
   </g>
   <g id="patch_22">
    <path d="M 95.751818 568.254545 
L 95.751818 568.254545 
L 95.751818 568.254545 
L 95.751818 568.254545 
z
" clip-path="url(#pfc6e44aba6)" style="fill: #abc9ea; stroke: #737373; stroke-width: 0.75; stroke-linejoin: miter"/>
   </g>
   <g id="patch_23">
    <path d="M 95.751818 568.254545 
L 95.751818 568.254545 
L 95.751818 568.254545 
L 95.751818 568.254545 
z
" clip-path="url(#pfc6e44aba6)" style="fill: #efb792; stroke: #737373; stroke-width: 0.75; stroke-linejoin: miter"/>
   </g>
   <g id="line2d_19">
    <path d="M 77.251091 108.966297 
L 77.251091 110.497922 
" clip-path="url(#pfc6e44aba6)" style="fill: none; stroke: #737373; stroke-width: 1.5; stroke-linecap: round"/>
   </g>
   <g id="line2d_20">
    <path d="M 77.251091 90.168649 
L 77.251091 85.141585 
" clip-path="url(#pfc6e44aba6)" style="fill: none; stroke: #737373; stroke-width: 1.5; stroke-linecap: round"/>
   </g>
   <g id="line2d_21">
    <path d="M 68.185735 110.497922 
L 86.316447 110.497922 
" clip-path="url(#pfc6e44aba6)" style="fill: none; stroke: #737373; stroke-width: 1.5; stroke-linecap: round"/>
   </g>
   <g id="line2d_22">
    <path d="M 68.185735 85.141585 
L 86.316447 85.141585 
" clip-path="url(#pfc6e44aba6)" style="fill: none; stroke: #737373; stroke-width: 1.5; stroke-linecap: round"/>
   </g>
   <g id="line2d_23">
    <defs>
     <path id="me95fdfb800" d="M -0 3.535534 
L 2.12132 0 
L -0 -3.535534 
L -2.12132 -0 
z
" style="stroke: #737373; stroke-linejoin: miter"/>
    </defs>
    <g clip-path="url(#pfc6e44aba6)">
     <use xlink:href="#me95fdfb800" x="77.251091" y="168.069206" style="fill: #737373; stroke: #737373; stroke-linejoin: miter"/>
    </g>
   </g>
   <g id="line2d_24">
    <path d="M 114.252545 111.023148 
L 114.252545 147.62042 
" clip-path="url(#pfc6e44aba6)" style="fill: none; stroke: #737373; stroke-width: 1.5; stroke-linecap: round"/>
   </g>
   <g id="line2d_25">
    <path d="M 114.252545 82.826186 
L 114.252545 68.997917 
" clip-path="url(#pfc6e44aba6)" style="fill: none; stroke: #737373; stroke-width: 1.5; stroke-linecap: round"/>
   </g>
   <g id="line2d_26">
    <path d="M 105.187189 147.62042 
L 123.317902 147.62042 
" clip-path="url(#pfc6e44aba6)" style="fill: none; stroke: #737373; stroke-width: 1.5; stroke-linecap: round"/>
   </g>
   <g id="line2d_27">
    <path d="M 105.187189 68.997917 
L 123.317902 68.997917 
" clip-path="url(#pfc6e44aba6)" style="fill: none; stroke: #737373; stroke-width: 1.5; stroke-linecap: round"/>
   </g>
   <g id="line2d_28"/>
   <g id="line2d_29">
    <path d="M 169.754727 177.660754 
L 169.754727 264.907999 
" clip-path="url(#pfc6e44aba6)" style="fill: none; stroke: #737373; stroke-width: 1.5; stroke-linecap: round"/>
   </g>
   <g id="line2d_30">
    <path d="M 169.754727 92.439388 
L 169.754727 53.345455 
" clip-path="url(#pfc6e44aba6)" style="fill: none; stroke: #737373; stroke-width: 1.5; stroke-linecap: round"/>
   </g>
   <g id="line2d_31">
    <path d="M 160.689371 264.907999 
L 178.820084 264.907999 
" clip-path="url(#pfc6e44aba6)" style="fill: none; stroke: #737373; stroke-width: 1.5; stroke-linecap: round"/>
   </g>
   <g id="line2d_32">
    <path d="M 160.689371 53.345455 
L 178.820084 53.345455 
" clip-path="url(#pfc6e44aba6)" style="fill: none; stroke: #737373; stroke-width: 1.5; stroke-linecap: round"/>
   </g>
   <g id="line2d_33"/>
   <g id="line2d_34">
    <path d="M 206.756182 135.564944 
L 206.756182 136.706702 
" clip-path="url(#pfc6e44aba6)" style="fill: none; stroke: #737373; stroke-width: 1.5; stroke-linecap: round"/>
   </g>
   <g id="line2d_35">
    <path d="M 206.756182 107.835014 
L 206.756182 83.85795 
" clip-path="url(#pfc6e44aba6)" style="fill: none; stroke: #737373; stroke-width: 1.5; stroke-linecap: round"/>
   </g>
   <g id="line2d_36">
    <path d="M 197.690825 136.706702 
L 215.821538 136.706702 
" clip-path="url(#pfc6e44aba6)" style="fill: none; stroke: #737373; stroke-width: 1.5; stroke-linecap: round"/>
   </g>
   <g id="line2d_37">
    <path d="M 197.690825 83.85795 
L 215.821538 83.85795 
" clip-path="url(#pfc6e44aba6)" style="fill: none; stroke: #737373; stroke-width: 1.5; stroke-linecap: round"/>
   </g>
   <g id="line2d_38">
    <g clip-path="url(#pfc6e44aba6)">
     <use xlink:href="#me95fdfb800" x="206.756182" y="193.663302" style="fill: #737373; stroke: #737373; stroke-linejoin: miter"/>
    </g>
   </g>
   <g id="line2d_39">
    <path d="M 262.258364 296.015682 
L 262.258364 300.990357 
" clip-path="url(#pfc6e44aba6)" style="fill: none; stroke: #737373; stroke-width: 1.5; stroke-linecap: round"/>
   </g>
   <g id="line2d_40">
    <path d="M 262.258364 269.074463 
L 262.258364 261.976337 
" clip-path="url(#pfc6e44aba6)" style="fill: none; stroke: #737373; stroke-width: 1.5; stroke-linecap: round"/>
   </g>
   <g id="line2d_41">
    <path d="M 253.193007 300.990357 
L 271.32372 300.990357 
" clip-path="url(#pfc6e44aba6)" style="fill: none; stroke: #737373; stroke-width: 1.5; stroke-linecap: round"/>
   </g>
   <g id="line2d_42">
    <path d="M 253.193007 261.976337 
L 271.32372 261.976337 
" clip-path="url(#pfc6e44aba6)" style="fill: none; stroke: #737373; stroke-width: 1.5; stroke-linecap: round"/>
   </g>
   <g id="line2d_43"/>
   <g id="line2d_44">
    <path d="M 299.259818 281.559354 
L 299.259818 304.012213 
" clip-path="url(#pfc6e44aba6)" style="fill: none; stroke: #737373; stroke-width: 1.5; stroke-linecap: round"/>
   </g>
   <g id="line2d_45">
    <path d="M 299.259818 236.049192 
L 299.259818 213.67772 
" clip-path="url(#pfc6e44aba6)" style="fill: none; stroke: #737373; stroke-width: 1.5; stroke-linecap: round"/>
   </g>
   <g id="line2d_46">
    <path d="M 290.194462 304.012213 
L 308.325175 304.012213 
" clip-path="url(#pfc6e44aba6)" style="fill: none; stroke: #737373; stroke-width: 1.5; stroke-linecap: round"/>
   </g>
   <g id="line2d_47">
    <path d="M 290.194462 213.67772 
L 308.325175 213.67772 
" clip-path="url(#pfc6e44aba6)" style="fill: none; stroke: #737373; stroke-width: 1.5; stroke-linecap: round"/>
   </g>
   <g id="line2d_48"/>
   <g id="line2d_49">
    <path d="M 354.762 513.822351 
L 354.762 568.254545 
" clip-path="url(#pfc6e44aba6)" style="fill: none; stroke: #737373; stroke-width: 1.5; stroke-linecap: round"/>
   </g>
   <g id="line2d_50">
    <path d="M 354.762 252.298188 
L 354.762 219.829159 
" clip-path="url(#pfc6e44aba6)" style="fill: none; stroke: #737373; stroke-width: 1.5; stroke-linecap: round"/>
   </g>
   <g id="line2d_51">
    <path d="M 345.696644 568.254545 
L 363.827356 568.254545 
" clip-path="url(#pfc6e44aba6)" style="fill: none; stroke: #737373; stroke-width: 1.5; stroke-linecap: round"/>
   </g>
   <g id="line2d_52">
    <path d="M 345.696644 219.829159 
L 363.827356 219.829159 
" clip-path="url(#pfc6e44aba6)" style="fill: none; stroke: #737373; stroke-width: 1.5; stroke-linecap: round"/>
   </g>
   <g id="line2d_53"/>
   <g id="line2d_54">
    <path d="M 391.763455 377.810745 
L 391.763455 393.574251 
" clip-path="url(#pfc6e44aba6)" style="fill: none; stroke: #737373; stroke-width: 1.5; stroke-linecap: round"/>
   </g>
   <g id="line2d_55">
    <path d="M 391.763455 266.580727 
L 391.763455 242.0245 
" clip-path="url(#pfc6e44aba6)" style="fill: none; stroke: #737373; stroke-width: 1.5; stroke-linecap: round"/>
   </g>
   <g id="line2d_56">
    <path d="M 382.698098 393.574251 
L 400.828811 393.574251 
" clip-path="url(#pfc6e44aba6)" style="fill: none; stroke: #737373; stroke-width: 1.5; stroke-linecap: round"/>
   </g>
   <g id="line2d_57">
    <path d="M 382.698098 242.0245 
L 400.828811 242.0245 
" clip-path="url(#pfc6e44aba6)" style="fill: none; stroke: #737373; stroke-width: 1.5; stroke-linecap: round"/>
   </g>
   <g id="line2d_58"/>
   <g id="line2d_59">
    <path d="M 447.265636 568.254545 
L 447.265636 568.254545 
" clip-path="url(#pfc6e44aba6)" style="fill: none; stroke: #737373; stroke-width: 1.5; stroke-linecap: round"/>
   </g>
   <g id="line2d_60">
    <path d="M 447.265636 568.254545 
L 447.265636 568.254545 
" clip-path="url(#pfc6e44aba6)" style="fill: none; stroke: #737373; stroke-width: 1.5; stroke-linecap: round"/>
   </g>
   <g id="line2d_61">
    <path d="M 438.20028 568.254545 
L 456.330993 568.254545 
" clip-path="url(#pfc6e44aba6)" style="fill: none; stroke: #737373; stroke-width: 1.5; stroke-linecap: round"/>
   </g>
   <g id="line2d_62">
    <path d="M 438.20028 568.254545 
L 456.330993 568.254545 
" clip-path="url(#pfc6e44aba6)" style="fill: none; stroke: #737373; stroke-width: 1.5; stroke-linecap: round"/>
   </g>
   <g id="line2d_63">
    <g clip-path="url(#pfc6e44aba6)">
     <use xlink:href="#me95fdfb800" x="447.265636" y="329.277368" style="fill: #737373; stroke: #737373; stroke-linejoin: miter"/>
    </g>
   </g>
   <g id="line2d_64">
    <path d="M 484.267091 568.254545 
L 484.267091 568.254545 
" clip-path="url(#pfc6e44aba6)" style="fill: none; stroke: #737373; stroke-width: 1.5; stroke-linecap: round"/>
   </g>
   <g id="line2d_65">
    <path d="M 484.267091 314.148939 
L 484.267091 192.561485 
" clip-path="url(#pfc6e44aba6)" style="fill: none; stroke: #737373; stroke-width: 1.5; stroke-linecap: round"/>
   </g>
   <g id="line2d_66">
    <path d="M 475.201735 568.254545 
L 493.332447 568.254545 
" clip-path="url(#pfc6e44aba6)" style="fill: none; stroke: #737373; stroke-width: 1.5; stroke-linecap: round"/>
   </g>
   <g id="line2d_67">
    <path d="M 475.201735 192.561485 
L 493.332447 192.561485 
" clip-path="url(#pfc6e44aba6)" style="fill: none; stroke: #737373; stroke-width: 1.5; stroke-linecap: round"/>
   </g>
   <g id="line2d_68"/>
   <g id="line2d_69">
    <path d="M 539.769273 510.393509 
L 539.769273 568.254545 
" clip-path="url(#pfc6e44aba6)" style="fill: none; stroke: #737373; stroke-width: 1.5; stroke-linecap: round"/>
   </g>
   <g id="line2d_70">
    <path d="M 539.769273 295.040357 
L 539.769273 268.789657 
" clip-path="url(#pfc6e44aba6)" style="fill: none; stroke: #737373; stroke-width: 1.5; stroke-linecap: round"/>
   </g>
   <g id="line2d_71">
    <path d="M 530.703916 568.254545 
L 548.834629 568.254545 
" clip-path="url(#pfc6e44aba6)" style="fill: none; stroke: #737373; stroke-width: 1.5; stroke-linecap: round"/>
   </g>
   <g id="line2d_72">
    <path d="M 530.703916 268.789657 
L 548.834629 268.789657 
" clip-path="url(#pfc6e44aba6)" style="fill: none; stroke: #737373; stroke-width: 1.5; stroke-linecap: round"/>
   </g>
   <g id="line2d_73"/>
   <g id="line2d_74">
    <path d="M 576.770727 362.434686 
L 576.770727 371.314466 
" clip-path="url(#pfc6e44aba6)" style="fill: none; stroke: #737373; stroke-width: 1.5; stroke-linecap: round"/>
   </g>
   <g id="line2d_75">
    <path d="M 576.770727 299.508779 
L 576.770727 222.852643 
" clip-path="url(#pfc6e44aba6)" style="fill: none; stroke: #737373; stroke-width: 1.5; stroke-linecap: round"/>
   </g>
   <g id="line2d_76">
    <path d="M 567.705371 371.314466 
L 585.836084 371.314466 
" clip-path="url(#pfc6e44aba6)" style="fill: none; stroke: #737373; stroke-width: 1.5; stroke-linecap: round"/>
   </g>
   <g id="line2d_77">
    <path d="M 567.705371 222.852643 
L 585.836084 222.852643 
" clip-path="url(#pfc6e44aba6)" style="fill: none; stroke: #737373; stroke-width: 1.5; stroke-linecap: round"/>
   </g>
   <g id="line2d_78"/>
   <g id="line2d_79">
    <path d="M 632.272909 568.254545 
L 632.272909 568.254545 
" clip-path="url(#pfc6e44aba6)" style="fill: none; stroke: #737373; stroke-width: 1.5; stroke-linecap: round"/>
   </g>
   <g id="line2d_80">
    <path d="M 632.272909 433.317 
L 632.272909 333.296643 
" clip-path="url(#pfc6e44aba6)" style="fill: none; stroke: #737373; stroke-width: 1.5; stroke-linecap: round"/>
   </g>
   <g id="line2d_81">
    <path d="M 623.207553 568.254545 
L 641.338265 568.254545 
" clip-path="url(#pfc6e44aba6)" style="fill: none; stroke: #737373; stroke-width: 1.5; stroke-linecap: round"/>
   </g>
   <g id="line2d_82">
    <path d="M 623.207553 333.296643 
L 641.338265 333.296643 
" clip-path="url(#pfc6e44aba6)" style="fill: none; stroke: #737373; stroke-width: 1.5; stroke-linecap: round"/>
   </g>
   <g id="line2d_83"/>
   <g id="line2d_84">
    <path d="M 669.274364 372.871011 
L 669.274364 376.57796 
" clip-path="url(#pfc6e44aba6)" style="fill: none; stroke: #737373; stroke-width: 1.5; stroke-linecap: round"/>
   </g>
   <g id="line2d_85">
    <path d="M 669.274364 336.586624 
L 669.274364 324.907879 
" clip-path="url(#pfc6e44aba6)" style="fill: none; stroke: #737373; stroke-width: 1.5; stroke-linecap: round"/>
   </g>
   <g id="line2d_86">
    <path d="M 660.209007 376.57796 
L 678.33972 376.57796 
" clip-path="url(#pfc6e44aba6)" style="fill: none; stroke: #737373; stroke-width: 1.5; stroke-linecap: round"/>
   </g>
   <g id="line2d_87">
    <path d="M 660.209007 324.907879 
L 678.33972 324.907879 
" clip-path="url(#pfc6e44aba6)" style="fill: none; stroke: #737373; stroke-width: 1.5; stroke-linecap: round"/>
   </g>
   <g id="line2d_88">
    <g clip-path="url(#pfc6e44aba6)">
     <use xlink:href="#me95fdfb800" x="669.274364" y="435.02033" style="fill: #737373; stroke: #737373; stroke-linejoin: miter"/>
    </g>
   </g>
   <g id="line2d_89">
    <path d="M 724.776545 568.254545 
L 724.776545 568.254545 
" clip-path="url(#pfc6e44aba6)" style="fill: none; stroke: #737373; stroke-width: 1.5; stroke-linecap: round"/>
   </g>
   <g id="line2d_90">
    <path d="M 724.776545 395.593502 
L 724.776545 376.57796 
" clip-path="url(#pfc6e44aba6)" style="fill: none; stroke: #737373; stroke-width: 1.5; stroke-linecap: round"/>
   </g>
   <g id="line2d_91">
    <path d="M 715.711189 568.254545 
L 733.841902 568.254545 
" clip-path="url(#pfc6e44aba6)" style="fill: none; stroke: #737373; stroke-width: 1.5; stroke-linecap: round"/>
   </g>
   <g id="line2d_92">
    <path d="M 715.711189 376.57796 
L 733.841902 376.57796 
" clip-path="url(#pfc6e44aba6)" style="fill: none; stroke: #737373; stroke-width: 1.5; stroke-linecap: round"/>
   </g>
   <g id="line2d_93"/>
   <g id="line2d_94">
    <path d="M 761.778 475.587107 
L 761.778 479.894388 
" clip-path="url(#pfc6e44aba6)" style="fill: none; stroke: #737373; stroke-width: 1.5; stroke-linecap: round"/>
   </g>
   <g id="line2d_95">
    <path d="M 761.778 437.624282 
L 761.778 425.170557 
" clip-path="url(#pfc6e44aba6)" style="fill: none; stroke: #737373; stroke-width: 1.5; stroke-linecap: round"/>
   </g>
   <g id="line2d_96">
    <path d="M 752.712644 479.894388 
L 770.843356 479.894388 
" clip-path="url(#pfc6e44aba6)" style="fill: none; stroke: #737373; stroke-width: 1.5; stroke-linecap: round"/>
   </g>
   <g id="line2d_97">
    <path d="M 752.712644 425.170557 
L 770.843356 425.170557 
" clip-path="url(#pfc6e44aba6)" style="fill: none; stroke: #737373; stroke-width: 1.5; stroke-linecap: round"/>
   </g>
   <g id="line2d_98">
    <g clip-path="url(#pfc6e44aba6)">
     <use xlink:href="#me95fdfb800" x="761.778" y="568.254545" style="fill: #737373; stroke: #737373; stroke-linejoin: miter"/>
    </g>
   </g>
   <g id="line2d_99">
    <path d="M 854.281636 568.254545 
L 854.281636 568.254545 
" clip-path="url(#pfc6e44aba6)" style="fill: none; stroke: #737373; stroke-width: 1.5; stroke-linecap: round"/>
   </g>
   <g id="line2d_100">
    <path d="M 854.281636 547.583019 
L 854.281636 547.583019 
" clip-path="url(#pfc6e44aba6)" style="fill: none; stroke: #737373; stroke-width: 1.5; stroke-linecap: round"/>
   </g>
   <g id="line2d_101">
    <path d="M 845.21628 568.254545 
L 863.346993 568.254545 
" clip-path="url(#pfc6e44aba6)" style="fill: none; stroke: #737373; stroke-width: 1.5; stroke-linecap: round"/>
   </g>
   <g id="line2d_102">
    <path d="M 845.21628 547.583019 
L 863.346993 547.583019 
" clip-path="url(#pfc6e44aba6)" style="fill: none; stroke: #737373; stroke-width: 1.5; stroke-linecap: round"/>
   </g>
   <g id="line2d_103">
    <g clip-path="url(#pfc6e44aba6)">
     <use xlink:href="#me95fdfb800" x="854.281636" y="379.979155" style="fill: #737373; stroke: #737373; stroke-linejoin: miter"/>
     <use xlink:href="#me95fdfb800" x="854.281636" y="394.276618" style="fill: #737373; stroke: #737373; stroke-linejoin: miter"/>
     <use xlink:href="#me95fdfb800" x="854.281636" y="485.568438" style="fill: #737373; stroke: #737373; stroke-linejoin: miter"/>
     <use xlink:href="#me95fdfb800" x="854.281636" y="379.979155" style="fill: #737373; stroke: #737373; stroke-linejoin: miter"/>
     <use xlink:href="#me95fdfb800" x="854.281636" y="394.276618" style="fill: #737373; stroke: #737373; stroke-linejoin: miter"/>
     <use xlink:href="#me95fdfb800" x="854.281636" y="485.568438" style="fill: #737373; stroke: #737373; stroke-linejoin: miter"/>
    </g>
   </g>
   <g id="line2d_104">
    <path d="M 946.785273 568.254545 
L 946.785273 568.254545 
" clip-path="url(#pfc6e44aba6)" style="fill: none; stroke: #737373; stroke-width: 1.5; stroke-linecap: round"/>
   </g>
   <g id="line2d_105">
    <path d="M 946.785273 568.254545 
L 946.785273 568.254545 
" clip-path="url(#pfc6e44aba6)" style="fill: none; stroke: #737373; stroke-width: 1.5; stroke-linecap: round"/>
   </g>
   <g id="line2d_106">
    <path d="M 937.719916 568.254545 
L 955.850629 568.254545 
" clip-path="url(#pfc6e44aba6)" style="fill: none; stroke: #737373; stroke-width: 1.5; stroke-linecap: round"/>
   </g>
   <g id="line2d_107">
    <path d="M 937.719916 568.254545 
L 955.850629 568.254545 
" clip-path="url(#pfc6e44aba6)" style="fill: none; stroke: #737373; stroke-width: 1.5; stroke-linecap: round"/>
   </g>
   <g id="line2d_108">
    <g clip-path="url(#pfc6e44aba6)">
     <use xlink:href="#me95fdfb800" x="946.785273" y="418.41154" style="fill: #737373; stroke: #737373; stroke-linejoin: miter"/>
    </g>
   </g>
   <g id="line2d_109">
    <path d="M 1039.288909 568.254545 
L 1039.288909 568.254545 
" clip-path="url(#pfc6e44aba6)" style="fill: none; stroke: #737373; stroke-width: 1.5; stroke-linecap: round"/>
   </g>
   <g id="line2d_110">
    <path d="M 1039.288909 568.254545 
L 1039.288909 568.254545 
" clip-path="url(#pfc6e44aba6)" style="fill: none; stroke: #737373; stroke-width: 1.5; stroke-linecap: round"/>
   </g>
   <g id="line2d_111">
    <path d="M 1030.223553 568.254545 
L 1048.354265 568.254545 
" clip-path="url(#pfc6e44aba6)" style="fill: none; stroke: #737373; stroke-width: 1.5; stroke-linecap: round"/>
   </g>
   <g id="line2d_112">
    <path d="M 1030.223553 568.254545 
L 1048.354265 568.254545 
" clip-path="url(#pfc6e44aba6)" style="fill: none; stroke: #737373; stroke-width: 1.5; stroke-linecap: round"/>
   </g>
   <g id="line2d_113">
    <g clip-path="url(#pfc6e44aba6)">
     <use xlink:href="#me95fdfb800" x="1039.288909" y="456.115052" style="fill: #737373; stroke: #737373; stroke-linejoin: miter"/>
    </g>
   </g>
   <g id="line2d_114">
    <path d="M 59.120378 100.338627 
L 95.381804 100.338627 
" clip-path="url(#pfc6e44aba6)" style="fill: none; stroke: #737373; stroke-width: 1.5; stroke-linecap: round"/>
   </g>
   <g id="line2d_115">
    <path d="M 96.121833 110.173644 
L 132.383258 110.173644 
" clip-path="url(#pfc6e44aba6)" style="fill: none; stroke: #737373; stroke-width: 1.5; stroke-linecap: round"/>
   </g>
   <g id="line2d_116">
    <path d="M 151.624015 123.231446 
L 187.88544 123.231446 
" clip-path="url(#pfc6e44aba6)" style="fill: none; stroke: #737373; stroke-width: 1.5; stroke-linecap: round"/>
   </g>
   <g id="line2d_117">
    <path d="M 188.625469 123.287764 
L 224.886895 123.287764 
" clip-path="url(#pfc6e44aba6)" style="fill: none; stroke: #737373; stroke-width: 1.5; stroke-linecap: round"/>
   </g>
   <g id="line2d_118">
    <path d="M 244.127651 287.023087 
L 280.389076 287.023087 
" clip-path="url(#pfc6e44aba6)" style="fill: none; stroke: #737373; stroke-width: 1.5; stroke-linecap: round"/>
   </g>
   <g id="line2d_119">
    <path d="M 281.129105 267.210985 
L 317.390531 267.210985 
" clip-path="url(#pfc6e44aba6)" style="fill: none; stroke: #737373; stroke-width: 1.5; stroke-linecap: round"/>
   </g>
   <g id="line2d_120">
    <path d="M 336.631287 316.585895 
L 372.892713 316.585895 
" clip-path="url(#pfc6e44aba6)" style="fill: none; stroke: #737373; stroke-width: 1.5; stroke-linecap: round"/>
   </g>
   <g id="line2d_121">
    <path d="M 373.632742 343.304894 
L 409.894167 343.304894 
" clip-path="url(#pfc6e44aba6)" style="fill: none; stroke: #737373; stroke-width: 1.5; stroke-linecap: round"/>
   </g>
   <g id="line2d_122">
    <path d="M 429.134924 568.254545 
L 465.396349 568.254545 
" clip-path="url(#pfc6e44aba6)" style="fill: none; stroke: #737373; stroke-width: 1.5; stroke-linecap: round"/>
   </g>
   <g id="line2d_123">
    <path d="M 466.136378 493.333043 
L 502.397804 493.333043 
" clip-path="url(#pfc6e44aba6)" style="fill: none; stroke: #737373; stroke-width: 1.5; stroke-linecap: round"/>
   </g>
   <g id="line2d_124">
    <path d="M 521.63856 333.197842 
L 557.899985 333.197842 
" clip-path="url(#pfc6e44aba6)" style="fill: none; stroke: #737373; stroke-width: 1.5; stroke-linecap: round"/>
   </g>
   <g id="line2d_125">
    <path d="M 558.640015 330.840653 
L 594.90144 330.840653 
" clip-path="url(#pfc6e44aba6)" style="fill: none; stroke: #737373; stroke-width: 1.5; stroke-linecap: round"/>
   </g>
   <g id="line2d_126">
    <path d="M 614.142196 568.254545 
L 650.403622 568.254545 
" clip-path="url(#pfc6e44aba6)" style="fill: none; stroke: #737373; stroke-width: 1.5; stroke-linecap: round"/>
   </g>
   <g id="line2d_127">
    <path d="M 651.143651 358.264353 
L 687.405076 358.264353 
" clip-path="url(#pfc6e44aba6)" style="fill: none; stroke: #737373; stroke-width: 1.5; stroke-linecap: round"/>
   </g>
   <g id="line2d_128">
    <path d="M 706.645833 506.845341 
L 742.907258 506.845341 
" clip-path="url(#pfc6e44aba6)" style="fill: none; stroke: #737373; stroke-width: 1.5; stroke-linecap: round"/>
   </g>
   <g id="line2d_129">
    <path d="M 743.647287 454.050699 
L 779.908713 454.050699 
" clip-path="url(#pfc6e44aba6)" style="fill: none; stroke: #737373; stroke-width: 1.5; stroke-linecap: round"/>
   </g>
   <g id="line2d_130">
    <path d="M 836.150924 568.254545 
L 872.412349 568.254545 
" clip-path="url(#pfc6e44aba6)" style="fill: none; stroke: #737373; stroke-width: 1.5; stroke-linecap: round"/>
   </g>
   <g id="line2d_131">
    <path d="M 928.65456 568.254545 
L 964.915985 568.254545 
" clip-path="url(#pfc6e44aba6)" style="fill: none; stroke: #737373; stroke-width: 1.5; stroke-linecap: round"/>
   </g>
   <g id="line2d_132">
    <path d="M 1021.158196 568.254545 
L 1057.419622 568.254545 
" clip-path="url(#pfc6e44aba6)" style="fill: none; stroke: #737373; stroke-width: 1.5; stroke-linecap: round"/>
   </g>
   <g id="patch_24">
    <path d="M 49.5 594 
L 49.5 27.6 
" style="fill: none; stroke: #262626; stroke-width: 1.25; stroke-linejoin: miter; stroke-linecap: square"/>
   </g>
   <g id="patch_25">
    <path d="M 1067.04 594 
L 1067.04 27.6 
" style="fill: none; stroke: #262626; stroke-width: 1.25; stroke-linejoin: miter; stroke-linecap: square"/>
   </g>
   <g id="patch_26">
    <path d="M 49.5 594 
L 1067.04 594 
" style="fill: none; stroke: #262626; stroke-width: 1.25; stroke-linejoin: miter; stroke-linecap: square"/>
   </g>
   <g id="patch_27">
    <path d="M 49.5 27.6 
L 1067.04 27.6 
" style="fill: none; stroke: #262626; stroke-width: 1.25; stroke-linejoin: miter; stroke-linecap: square"/>
   </g>
   <g id="text_20">
    <!-- Phylum abundances rank by groups. -->
    <g style="fill: #262626" transform="translate(460.885312 21.6) scale(0.12 -0.12)">
     <defs>
      <path id="ArialMT-68" d="M 422 0 
L 422 4581 
L 984 4581 
L 984 2938 
Q 1378 3394 1978 3394 
Q 2347 3394 2619 3248 
Q 2891 3103 3008 2847 
Q 3125 2591 3125 2103 
L 3125 0 
L 2563 0 
L 2563 2103 
Q 2563 2525 2380 2717 
Q 2197 2909 1863 2909 
Q 1613 2909 1392 2779 
Q 1172 2650 1078 2428 
Q 984 2206 984 1816 
L 984 0 
L 422 0 
z
" transform="scale(0.015625)"/>
      <path id="ArialMT-6b" d="M 425 0 
L 425 4581 
L 988 4581 
L 988 1969 
L 2319 3319 
L 3047 3319 
L 1778 2088 
L 3175 0 
L 2481 0 
L 1384 1697 
L 988 1316 
L 988 0 
L 425 0 
z
" transform="scale(0.015625)"/>
      <path id="ArialMT-2e" d="M 581 0 
L 581 641 
L 1222 641 
L 1222 0 
L 581 0 
z
" transform="scale(0.015625)"/>
     </defs>
     <use xlink:href="#ArialMT-50"/>
     <use xlink:href="#ArialMT-68" x="66.699219"/>
     <use xlink:href="#ArialMT-79" x="122.314453"/>
     <use xlink:href="#ArialMT-6c" x="172.314453"/>
     <use xlink:href="#ArialMT-75" x="194.53125"/>
     <use xlink:href="#ArialMT-6d" x="250.146484"/>
     <use xlink:href="#ArialMT-20" x="333.447266"/>
     <use xlink:href="#ArialMT-61" x="361.230469"/>
     <use xlink:href="#ArialMT-62" x="416.845703"/>
     <use xlink:href="#ArialMT-75" x="472.460938"/>
     <use xlink:href="#ArialMT-6e" x="528.076172"/>
     <use xlink:href="#ArialMT-64" x="583.691406"/>
     <use xlink:href="#ArialMT-61" x="639.306641"/>
     <use xlink:href="#ArialMT-6e" x="694.921875"/>
     <use xlink:href="#ArialMT-63" x="750.537109"/>
     <use xlink:href="#ArialMT-65" x="800.537109"/>
     <use xlink:href="#ArialMT-73" x="856.152344"/>
     <use xlink:href="#ArialMT-20" x="906.152344"/>
     <use xlink:href="#ArialMT-72" x="933.935547"/>
     <use xlink:href="#ArialMT-61" x="967.236328"/>
     <use xlink:href="#ArialMT-6e" x="1022.851562"/>
     <use xlink:href="#ArialMT-6b" x="1078.466797"/>
     <use xlink:href="#ArialMT-20" x="1128.466797"/>
     <use xlink:href="#ArialMT-62" x="1156.25"/>
     <use xlink:href="#ArialMT-79" x="1211.865234"/>
     <use xlink:href="#ArialMT-20" x="1261.865234"/>
     <use xlink:href="#ArialMT-67" x="1289.648438"/>
     <use xlink:href="#ArialMT-72" x="1345.263672"/>
     <use xlink:href="#ArialMT-6f" x="1378.564453"/>
     <use xlink:href="#ArialMT-75" x="1434.179688"/>
     <use xlink:href="#ArialMT-70" x="1489.794922"/>
     <use xlink:href="#ArialMT-73" x="1545.410156"/>
     <use xlink:href="#ArialMT-2e" x="1595.410156"/>
    </g>
   </g>
   <g id="legend_1">
    <g id="patch_28">
     <path d="M 1008.858594 84.140312 
L 1059.34 84.140312 
Q 1061.54 84.140312 1061.54 81.940312 
L 1061.54 35.3 
Q 1061.54 33.1 1059.34 33.1 
L 1008.858594 33.1 
Q 1006.658594 33.1 1006.658594 35.3 
L 1006.658594 81.940312 
Q 1006.658594 84.140312 1008.858594 84.140312 
z
" style="fill: #ffffff; opacity: 0.8; stroke: #cccccc; stroke-linejoin: miter"/>
    </g>
    <g id="text_21">
     <!-- Group -->
     <g style="fill: #262626" transform="translate(1017.424922 46.235625) scale(0.12 -0.12)">
      <defs>
       <path id="ArialMT-47" d="M 2638 1797 
L 2638 2334 
L 4578 2338 
L 4578 638 
Q 4131 281 3656 101 
Q 3181 -78 2681 -78 
Q 2006 -78 1454 211 
Q 903 500 622 1047 
Q 341 1594 341 2269 
Q 341 2938 620 3517 
Q 900 4097 1425 4378 
Q 1950 4659 2634 4659 
Q 3131 4659 3532 4498 
Q 3934 4338 4162 4050 
Q 4391 3763 4509 3300 
L 3963 3150 
Q 3859 3500 3706 3700 
Q 3553 3900 3268 4020 
Q 2984 4141 2638 4141 
Q 2222 4141 1919 4014 
Q 1616 3888 1430 3681 
Q 1244 3475 1141 3228 
Q 966 2803 966 2306 
Q 966 1694 1177 1281 
Q 1388 869 1791 669 
Q 2194 469 2647 469 
Q 3041 469 3416 620 
Q 3791 772 3984 944 
L 3984 1797 
L 2638 1797 
z
" transform="scale(0.015625)"/>
      </defs>
      <use xlink:href="#ArialMT-47"/>
      <use xlink:href="#ArialMT-72" x="77.783203"/>
      <use xlink:href="#ArialMT-6f" x="111.083984"/>
      <use xlink:href="#ArialMT-75" x="166.699219"/>
      <use xlink:href="#ArialMT-70" x="222.314453"/>
     </g>
    </g>
    <g id="patch_29">
     <path d="M 1011.058594 61.994219 
L 1033.058594 61.994219 
L 1033.058594 54.294219 
L 1011.058594 54.294219 
z
" style="fill: #abc9ea; stroke: #737373; stroke-width: 0.75; stroke-linejoin: miter"/>
    </g>
    <g id="text_22">
     <!-- C -->
     <g style="fill: #262626" transform="translate(1041.858594 61.994219) scale(0.11 -0.11)">
      <use xlink:href="#ArialMT-43"/>
     </g>
    </g>
    <g id="patch_30">
     <path d="M 1011.058594 77.554062 
L 1033.058594 77.554062 
L 1033.058594 69.854062 
L 1011.058594 69.854062 
z
" style="fill: #efb792; stroke: #737373; stroke-width: 0.75; stroke-linejoin: miter"/>
    </g>
    <g id="text_23">
     <!-- AC -->
     <g style="fill: #262626" transform="translate(1041.858594 77.554062) scale(0.11 -0.11)">
      <use xlink:href="#ArialMT-41"/>
      <use xlink:href="#ArialMT-43" x="66.699219"/>
     </g>
    </g>
   </g>
  </g>
 </g>
 <defs>
  <clipPath id="pfc6e44aba6">
   <rect x="49.5" y="27.6" width="1017.54" height="566.4"/>
  </clipPath>
 </defs>
</svg>
